<svg height="512pt" viewBox="0 0 512 512" width="512pt" xmlns="http://www.w3.org/2000/svg"><path d="m512 256c0 141.386719-114.613281 256-256 256s-256-114.613281-256-256 114.613281-256 256-256 256 114.613281 256 256zm0 0" fill="#f15424"/><path d="m405.757812 339.035156c7.816407-125.152344 70.710938-256.511718 106.035157-321.394531.871093-1.601563-1.214844-3.160156-2.503907-1.871094l-177.066406 177.066407c-1.371094 1.371093-1.699218 3.433593-.917968 5.210937 5.691406 12.933594 2.910156 28.695313-8.367188 38.851563-13.09375 11.792968-33.449219 11.421874-46.132812-.808594-13.675782-13.191406-13.828126-34.96875-.453126-48.347656 10.179688-10.179688 25.226563-12.515626 37.648438-7.027344 1.742188.769531 3.769531.453125 5.117188-.894532l177.113281-177.109374c1.289062-1.289063-.269531-3.375-1.871094-2.503907-64.886719 35.324219-196.25 98.222657-321.40625 106.03125-5.097656.320313-9.226563 4.222657-9.839844 9.289063-3.5625 29.566406-18.183593 126.21875-61.652343 179.042968.039062.824219.0625 1.316407.097656 2.140626l56.867187 56.863281 56.863281 56.863281c.820313.039062 1.316407.0625 2.136719.101562 52.820313-43.46875 149.457031-58.085937 179.035157-61.652343 5.074218-.613281 8.980468-4.75 9.296874-9.851563zm0 0" fill="#ffd55c"/><path d="m276.804688 236.085938c-13.675782-13.1875-13.828126-34.96875-.453126-48.34375 10.179688-10.179688 25.226563-12.515626 37.648438-7.027344 1.742188.769531 3.769531.453125 5.117188-.894532l177.113281-177.109374c1.289062-1.289063-.269531-3.375-1.871094-2.503907-64.886719 35.324219-196.25 98.222657-321.40625 106.035157-5.097656.316406-9.226563 4.21875-9.839844 9.285156-3.5625 29.570312-18.183593 126.21875-61.652343 179.046875.039062.820312.0625 1.316406.097656 2.136719l56.867187 56.863281.441407.445312zm0 0" fill="#ffc640"/><path d="m23.34375 362.910156c25.523438 55.457032 70.289062 100.222656 125.746094 125.746094l72.207031-72.210938-125.746094-125.742187zm0 0" fill="#465365"/><path d="m49.566406 407.398438 81.339844-81.339844-35.355469-35.355469-72.210937 72.210937c7.253906 15.753907 16.0625 30.648438 26.226562 44.484376zm0 0" fill="#3e4959"/><path d="m198.398438 452.574219-138.972657-138.972657c-4.140625-4.144531-4.140625-10.859374 0-15.003906l44.023438-44.019531c4.140625-4.144531 10.859375-4.144531 15 0l138.972656 138.972656c4.144531 4.140625 4.144531 10.859375 0 15l-44.019531 44.023438c-4.144532 4.140625-10.863282 4.140625-15.003906 0zm0 0" fill="#fff"/><path d="m94.78125 333.953125 44.023438-44.019531c4.140624-4.144532 10.859374-4.144532 15 0l-35.355469-35.355469c-4.140625-4.144531-10.859375-4.144531-15 0l-44.023438 44.019531c-4.140625 4.144532-4.140625 10.859375 0 15.003906l35.355469 35.355469c-4.140625-4.144531-4.140625-10.859375 0-15.003906zm0 0" fill="#f2f2f2"/></svg>