<svg viewBox="1 1 511.99998 511.99998" xmlns="http://www.w3.org/2000/svg"><path d="m512 256c0 141.386719-114.613281 256-256 256s-256-114.613281-256-256 114.613281-256 256-256 256 114.613281 256 256zm0 0" fill="#fcda42"/><path d="m256 512v-256h256c0 141.386719-114.613281 256-256 256zm0 0" fill="#5a9ed1"/><path d="m0 256c0-141.386719 114.613281-256 256-256s256 114.613281 256 256zm0 0" fill="#ff4f9b"/><path d="m256 0v256h-256c0-141.386719 114.613281-256 256-256zm0 0" fill="#583377"/><path d="m222.101562 310.464844-21.378906-21.382813-54.003906 54.003907c-5.902344 5.902343-5.902344 15.476562 0 21.378906 5.90625 5.90625 15.476562 5.90625 21.382812 0zm0 0" fill="#dedede"/><path d="m369.339844 200.585938-58.738282-58.738282-148.367187 148.363282c-16.21875 16.21875-16.21875 42.519531 0 58.738281 16.222656 16.21875 42.519531 16.21875 58.742187 0zm0 0" fill="#fff"/><path d="m177.75 305.726562 148.367188-148.363281-15.515626-15.515625-148.367187 148.363282c-16.21875 16.222656-16.21875 42.519531 0 58.738281 2.6875 2.6875 5.65625 4.917969 8.800781 6.714843-9.050781-15.855468-6.816406-36.402343 6.714844-49.9375zm0 0" fill="#dedede"/><path d="m281.421875 258.957031-75.222656 75.210938c-8.042969 8.046875-21.136719 8.058593-29.183594 0-8.046875-8.042969-8.046875-21.136719 0-29.183594l46.027344-46.027344zm0 0" fill="#583377"/><path d="m490.691406 79.234375-126.890625 126.890625-58.742187-58.738281 126.894531-126.890625c16.214844-16.21875 42.519531-16.21875 58.738281 0 2.863282 2.867187 5.222656 6.050781 7.078125 9.441406 8.628907 15.769531 6.269531 35.945312-7.078125 49.296875zm0 0" fill="#f4a441"/><path d="m490.691406 79.234375-101.410156 101.40625-25.507812-25.511719c-9.230469-9.226562-9.230469-24.183594 0-33.414062l84.699218-84.699219c13.351563-13.351563 33.535156-15.714844 49.296875-7.078125 8.628907 15.769531 6.269531 35.945312-7.078125 49.296875zm0 0" fill="#fcda42"/><path d="m374.882812 223.859375c-4.597656 4.59375-10.609374 6.886719-16.625 6.886719-6.015624 0-12.035156-2.300782-16.625-6.886719l-54.304687-54.304687c-9.175781-9.175782-9.183594-24.066407 0-33.25 4.589844-4.589844 10.609375-6.886719 16.625-6.886719s12.035156 2.296875 16.625 6.886719l54.304687 54.304687c9.175782 9.175781 9.175782 24.070313 0 33.25zm0 0" fill="#f4a441"/><path d="m374.882812 223.859375c-4.597656 4.59375-10.609374 6.886719-16.625 6.886719-6.015624 0-12.035156-2.300782-16.625-6.886719l-23.375-23.378906c-9.183593-9.183594-9.183593-24.0625 0-33.246094 4.585938-4.589844 10.609376-6.886719 16.621094-6.886719 6.015625 0 12.03125 2.289063 16.625 6.886719l23.378906 23.375c9.175782 9.175781 9.175782 24.070313 0 33.25zm0 0" fill="#fcda42"/></svg>