<svg height="512pt" viewBox="0 0 512 512" width="512pt" xmlns="http://www.w3.org/2000/svg"><path d="m512 256c0 51.199219-15.027344 98.890625-40.929688 138.898438-7.730468 11.964843-16.445312 23.25-26.039062 33.71875-5.296875 5.808593-10.867188 11.367187-16.675781 16.65625-45.484375 41.460937-105.972657 66.726562-172.355469 66.726562-141.386719 0-256-114.613281-256-256s114.613281-256 256-256 256 114.613281 256 256zm0 0" fill="#ffe152"/><path d="m471.070312 394.898438c-7.730468 11.964843-16.445312 23.25-26.039062 33.71875-5.296875 5.808593-10.867188 11.367187-16.675781 16.65625l-60.574219-60.574219 16.667969-16.664063 29.875-29.886718zm0 0" fill="#2a2f4f"/><path d="m471.070312 394.898438c-7.730468 11.964843-16.445312 23.25-26.039062 33.71875l-60.582031-60.582032 29.875-29.886718zm0 0" fill="#3d4159"/><path d="m454.488281 214.46875c0 116.195312-94.195312 210.386719-210.386719 210.386719-116.195312 0-210.390624-94.191407-210.390624-210.386719s94.195312-210.386719 210.390624-210.386719c116.191407 0 210.386719 94.191407 210.386719 210.386719zm0 0" fill="#66baed"/><path d="m404.355469 214.46875c0 88.503906-71.75 160.253906-160.253907 160.253906-88.507812 0-160.253906-71.75-160.253906-160.253906 0-88.507812 71.746094-160.253906 160.253906-160.253906 88.503907 0 160.253907 71.746094 160.253907 160.253906zm0 0" fill="#dde8ed"/><path d="m357.417969 101.152344c-35.878907-35.878906-84.535157-51.179688-131.320313-45.917969 34.820313 3.914063 68.605469 19.214844 95.3125 45.917969 62.582032 62.582031 62.582032 164.050781 0 226.632812-26.703125 26.703125-60.492187 42.003906-95.3125 45.917969 46.785156 5.261719 95.441406-10.039063 131.320313-45.917969 62.582031-62.582031 62.582031-164.050781 0-226.632812zm0 0" fill="#dce6ea"/><path d="m244.101562 385.171875c-45.597656 0-88.464843-17.757813-120.707031-49.996094-66.554687-66.558593-66.554687-174.855469 0-241.414062 32.242188-32.238281 75.109375-49.996094 120.707031-49.996094 45.59375 0 88.464844 17.757813 120.703126 49.996094 32.242187 32.242187 50 75.109375 50 120.707031s-17.757813 88.464844-50 120.707031c-32.238282 32.238281-75.105469 49.996094-120.703126 49.996094zm0-320.507813c-40.015624 0-77.632812 15.582032-105.929687 43.875-58.40625 58.410157-58.40625 153.449219 0 211.855469 28.296875 28.296875 65.914063 43.878907 105.929687 43.878907 40.011719 0 77.632813-15.582032 105.925782-43.878907 58.410156-58.40625 58.410156-153.445312 0-211.855469-28.292969-28.292968-65.914063-43.875-105.925782-43.875zm0 0" fill="#2ba1cf"/><path d="m153.941406 291.25v-104.640625c0-10.632813 1.773438-21.050781 5.273438-30.960937 13.097656-37.269532 48.460937-62.316407 87.996094-62.316407 4.898437 0 9.785156.378907 14.53125 1.128907 21.722656 3.394531 41.652343 14.484374 56.101562 31.222656 14.601562 16.914062 22.644531 38.550781 22.644531 60.925781v104.640625" fill="#f74f4f"/><path d="m192.308594 190.695312c0 37.015626 21.675781 79.835938 33.578125 100.554688h-71.949219v-104.636719c0-10.632812 1.777344-21.050781 5.273438-30.964843 13.015624-37.050782 48.058593-62.027344 87.320312-62.308594-28.675781.71875-54.222656 46.722656-54.222656 97.355468zm0 0" fill="#dd3033"/><path d="m179.308594 231.460938c0 11.460937-8.371094 20.960937-19.332032 22.726562-1.199218.191406-2.433593.292969-3.6875.292969-12.71875 0-23.023437-10.300781-23.023437-23.019531s10.304687-23.023438 23.023437-23.023438c1.253907 0 2.488282.101562 3.6875.296875 10.960938 1.761719 19.332032 11.265625 19.332032 22.726563zm0 0" fill="#f6caae"/><g fill="#eab599"><path d="m179.308594 231.460938c0 11.460937-8.371094 20.960937-19.332032 22.726562-1.992187-7.242188-3.058593-14.863281-3.058593-22.726562 0-7.867188 1.066406-15.484376 3.058593-22.726563 10.960938 1.761719 19.332032 11.265625 19.332032 22.726563zm0 0"/><path d="m164.515625 231.460938c0 4.542968-3.683594 8.226562-8.226563 8.226562-4.546874 0-8.230468-3.683594-8.230468-8.226562 0-4.542969 3.683594-8.226563 8.230468-8.226563 4.542969 0 8.226563 3.683594 8.226563 8.226563zm0 0"/><path d="m306.324219 202.066406v79.132813c-12.230469 11.675781-27.914063 19.757812-45.363281 22.574219-.140626.019531-.285157.042968-.421876.066406-4.335937.695312-8.785156 1.039062-13.328124 1.039062-47.300782 0-85.648438-38.347656-85.648438-85.652344v-32.613281c0-4.179687.296875-8.285156.875-12.300781 20.378906 14.652344 49.597656 13.207031 68.214844-4.390625 6.164062-5.820313 10.449218-12.757813 12.871094-20.109375 1.347656 12.878906 7.238281 25.414062 17.679687 35.28125 12.429687 11.734375 28.851563 17.398438 45.121094 16.972656zm0 0"/></g><path d="m306.324219 202.066406v79.132813c-12.230469 11.675781-27.914063 19.757812-45.363281 22.574219-.140626.019531-.285157.042968-.421876.066406-40.96875-6.398438-72.304687-41.851563-72.304687-84.613282v-32.613281c0-.871093.015625-1.730469.046875-2.59375 15.101562 1.546875 30.785156-3.148437 42.371094-14.097656 6.164062-5.824219 10.449218-12.757813 12.871094-20.113281 1.347656 12.882812 7.238281 25.417968 17.679687 35.285156 12.429687 11.734375 28.851563 17.398438 45.121094 16.972656zm0 0" fill="#f6caae"/><path d="m293.214844 211.992188c0-7.855469-6.371094-14.222657-14.226563-14.222657s-14.226562 6.367188-14.226562 14.222657" fill="#eab599"/><path d="m229.675781 211.992188c0-7.855469-6.367187-14.222657-14.226562-14.222657-7.855469 0-14.222657 6.367188-14.222657 14.222657" fill="#eab599"/><path d="m225.167969 218.050781c0 5.363281-4.351563 9.714844-9.71875 9.714844-5.363281 0-9.714844-4.351563-9.714844-9.714844 0-5.367187 4.351563-9.71875 9.714844-9.71875 5.367187 0 9.71875 4.351563 9.71875 9.71875zm0 0" fill="#3d4159"/><path d="m288.703125 218.050781c0 5.363281-4.347656 9.714844-9.714844 9.714844-5.367187 0-9.71875-4.351563-9.71875-9.714844 0-5.367187 4.351563-9.71875 9.71875-9.71875 5.367188 0 9.714844 4.351563 9.714844 9.71875zm0 0" fill="#3d4159"/><path d="m256.933594 242.511719h-19.429688c-2.316406 0-4.191406-1.875-4.191406-4.1875 0-2.316407 1.875-4.191407 4.191406-4.191407h19.429688c2.316406 0 4.191406 1.875 4.191406 4.191407.003906 2.3125-1.875 4.1875-4.191406 4.1875zm0 0" fill="#eab599"/><path d="m247.21875 269.03125c-7.171875 0-14.34375-1.796875-20.882812-5.390625-1.84375-1.015625-2.515626-3.332031-1.503907-5.175781 1.015625-1.84375 3.332031-2.515625 5.175781-1.503906 10.777344 5.925781 23.644532 5.925781 34.421876 0 1.84375-1.011719 4.160156-.339844 5.175781 1.503906 1.011719 1.84375.339843 4.160156-1.503907 5.175781-6.539062 3.59375-13.710937 5.390625-20.882812 5.390625zm0 0" fill="#eab599"/><path d="m223.1875 216.335938c0 2.296874-1.867188 4.164062-4.164062 4.164062-2.300782 0-4.164063-1.867188-4.164063-4.164062 0-2.300782 1.863281-4.164063 4.164063-4.164063 2.296874 0 4.164062 1.863281 4.164062 4.164063zm0 0" fill="#fff"/><path d="m287.199219 216.335938c0 2.296874-1.863281 4.164062-4.164063 4.164062-2.296875 0-4.164062-1.867188-4.164062-4.164062 0-2.300782 1.867187-4.164063 4.164062-4.164063 2.300782 0 4.164063 1.863281 4.164063 4.164063zm0 0" fill="#fff"/><path d="m305.515625 241.714844c0 5.894531-4.777344 10.667968-10.671875 10.667968-5.890625 0-10.667969-4.773437-10.667969-10.667968 0-5.890625 4.777344-10.667969 10.667969-10.667969 5.894531 0 10.671875 4.777344 10.671875 10.667969zm0 0" fill="#eab599"/><path d="m210.253906 241.714844c0 5.894531-4.773437 10.667968-10.667968 10.667968-5.890626 0-10.667969-4.773437-10.667969-10.667968 0-5.890625 4.777343-10.667969 10.667969-10.667969 5.894531 0 10.667968 4.777344 10.667968 10.667969zm0 0" fill="#eab599"/></svg>